<?xml version="1.0" encoding="UTF-8" standalone="no"?>
<!DOCTYPE svg PUBLIC "-//W3C//DTD SVG 1.1//EN" "http://www.w3.org/Graphics/SVG/1.1/DTD/svg11.dtd">
<svg width="100%" height="100%" viewBox="0 0 254 98" version="1.1" xmlns="http://www.w3.org/2000/svg" xmlns:xlink="http://www.w3.org/1999/xlink" xml:space="preserve" xmlns:serif="http://www.serif.com/" style="fill-rule:evenodd;clip-rule:evenodd;stroke-linejoin:round;stroke-miterlimit:10;">
    <g transform="matrix(1,0,0,1,-131,-82.2081)">
        <g transform="matrix(1,0,0,1,2.09111,-384.858)">
            <path d="M212.623,526.07C212.623,525.231 212.607,524.408 212.575,523.6C212.544,522.793 212.509,521.97 212.471,521.13C212.636,521.156 212.795,521.178 212.947,521.197C213.1,521.216 213.252,521.226 213.405,521.226C213.558,521.226 213.71,521.216 213.863,521.197C214.015,521.178 214.174,521.156 214.34,521.13C214.301,521.97 214.266,522.793 214.235,523.6C214.203,524.408 214.187,525.231 214.187,526.07C214.187,527.672 214.193,529.061 214.206,530.237C214.219,531.414 214.232,532.466 214.244,533.394C215.147,533.394 216.012,533.384 216.838,533.365C217.665,533.346 218.555,533.273 219.508,533.146C219.445,533.375 219.413,533.566 219.413,533.718C219.413,533.858 219.445,534.03 219.508,534.233C218.923,534.208 218.338,534.195 217.754,534.195L214.235,534.195C213.669,534.195 213.081,534.208 212.471,534.233C212.509,533.445 212.544,532.644 212.575,531.83C212.607,531.016 212.623,530.19 212.623,529.351L212.623,526.07Z" style="fill:rgb(67,67,67);fill-rule:nonzero;stroke:black;stroke-width:0.24px;"/>
            <path d="M222.634,529.732C222.634,530.266 222.682,530.781 222.777,531.277C222.873,531.773 223.035,532.215 223.264,532.602C223.492,532.99 223.798,533.299 224.179,533.527C224.561,533.756 225.031,533.871 225.59,533.871C226.15,533.871 226.62,533.756 227.002,533.527C227.383,533.299 227.688,532.99 227.917,532.602C228.146,532.215 228.308,531.773 228.404,531.277C228.499,530.781 228.547,530.266 228.547,529.732C228.547,529.198 228.499,528.683 228.404,528.187C228.308,527.691 228.146,527.25 227.917,526.862C227.688,526.474 227.383,526.166 227.002,525.937C226.62,525.708 226.15,525.593 225.59,525.593C225.031,525.593 224.561,525.708 224.179,525.937C223.798,526.166 223.492,526.474 223.264,526.862C223.035,527.25 222.873,527.691 222.777,528.187C222.682,528.683 222.634,529.198 222.634,529.732ZM220.956,529.732C220.956,528.867 221.093,528.133 221.366,527.529C221.639,526.925 221.998,526.436 222.444,526.061C222.889,525.686 223.388,525.412 223.941,525.241C224.494,525.069 225.044,524.983 225.59,524.983C226.15,524.983 226.703,525.069 227.25,525.241C227.796,525.412 228.292,525.686 228.737,526.061C229.182,526.436 229.542,526.925 229.815,527.529C230.088,528.133 230.225,528.867 230.225,529.732C230.225,530.597 230.088,531.331 229.815,531.935C229.542,532.539 229.182,533.028 228.737,533.403C228.292,533.779 227.796,534.042 227.25,534.195C226.703,534.348 226.15,534.424 225.59,534.424C225.044,534.424 224.494,534.348 223.941,534.195C223.388,534.042 222.889,533.779 222.444,533.403C221.998,533.028 221.639,532.539 221.366,531.935C221.093,531.331 220.956,530.597 220.956,529.732Z" style="fill:rgb(67,67,67);fill-rule:nonzero;stroke:black;stroke-width:0.24px;"/>
            <path d="M238.558,528.874C238.558,527.92 238.373,527.199 238.005,526.709C237.636,526.22 237.127,525.975 236.479,525.975C235.589,525.975 234.937,526.248 234.524,526.795C234.111,527.342 233.904,528.111 233.904,529.103L233.904,530.724C233.904,531.296 233.914,531.897 233.933,532.526C233.952,533.156 233.993,533.725 234.057,534.233C233.764,534.208 233.478,534.195 233.198,534.195C232.919,534.195 232.633,534.208 232.34,534.233C232.404,533.725 232.445,533.156 232.464,532.526C232.483,531.897 232.493,531.296 232.493,530.724L232.493,528.74C232.493,528.168 232.483,527.567 232.464,526.938C232.445,526.309 232.404,525.721 232.34,525.174C232.696,525.237 232.982,525.269 233.198,525.269C233.3,525.269 233.411,525.26 233.532,525.241C233.653,525.221 233.796,525.199 233.961,525.174C233.923,525.682 233.904,526.191 233.904,526.7L233.942,526.7C234.298,526.153 234.724,525.73 235.22,525.431C235.716,525.132 236.307,524.983 236.994,524.983C237.35,524.983 237.709,525.034 238.071,525.136C238.434,525.237 238.761,525.412 239.054,525.66C239.346,525.908 239.585,526.245 239.769,526.671C239.953,527.097 240.045,527.64 240.045,528.302C240.045,528.848 240.033,529.411 240.007,529.99C239.982,530.568 239.969,531.182 239.969,531.83L239.969,533.07C239.969,533.273 239.972,533.473 239.979,533.671C239.985,533.868 239.995,534.055 240.007,534.233C239.753,534.208 239.486,534.195 239.206,534.195C238.939,534.195 238.679,534.208 238.424,534.233C238.45,533.572 238.478,532.892 238.51,532.192C238.542,531.493 238.558,530.775 238.558,530.037L238.558,528.874Z" style="fill:rgb(67,67,67);fill-rule:nonzero;stroke:black;stroke-width:0.24px;"/>
            <path d="M243.973,529.904C243.973,530.667 244.052,531.296 244.211,531.792C244.37,532.288 244.573,532.685 244.821,532.984C245.069,533.283 245.352,533.489 245.67,533.604C245.988,533.718 246.299,533.775 246.605,533.775C247.1,533.775 247.526,533.651 247.882,533.403C248.238,533.156 248.534,532.831 248.769,532.431C249.004,532.03 249.176,531.576 249.284,531.067C249.392,530.559 249.446,530.05 249.446,529.541C249.446,528.321 249.211,527.389 248.741,526.747C248.27,526.105 247.577,525.784 246.662,525.784C246.204,525.784 245.807,525.889 245.47,526.099C245.133,526.309 244.853,526.601 244.631,526.976C244.408,527.351 244.243,527.79 244.135,528.292C244.027,528.794 243.973,529.332 243.973,529.904ZM249.389,532.421C249.287,532.625 249.151,532.844 248.979,533.079C248.807,533.314 248.591,533.534 248.331,533.737C248.07,533.941 247.762,534.106 247.406,534.233C247.05,534.36 246.636,534.424 246.166,534.424C245.683,534.424 245.209,534.341 244.745,534.176C244.281,534.011 243.868,533.74 243.505,533.365C243.143,532.99 242.85,532.507 242.628,531.916C242.405,531.325 242.294,530.616 242.294,529.789C242.294,528.976 242.415,528.27 242.657,527.672C242.898,527.075 243.213,526.576 243.601,526.175C243.988,525.775 244.427,525.476 244.917,525.279C245.406,525.082 245.899,524.983 246.395,524.983C247.806,524.983 248.785,525.619 249.332,526.89L249.37,526.89L249.37,525.021C249.37,524.538 249.367,524.052 249.36,523.562C249.354,523.073 249.348,522.605 249.341,522.16C249.335,521.715 249.329,521.296 249.322,520.902C249.316,520.507 249.306,520.158 249.294,519.853C249.446,519.878 249.593,519.9 249.732,519.919C249.872,519.938 250.012,519.948 250.152,519.948C250.292,519.948 250.429,519.938 250.562,519.919C250.696,519.9 250.845,519.878 251.01,519.853C250.972,520.26 250.94,520.848 250.915,521.617C250.889,522.386 250.867,523.235 250.848,524.163C250.829,525.091 250.813,526.045 250.8,527.024C250.788,528.003 250.781,528.899 250.781,529.713C250.781,530.59 250.788,531.379 250.8,532.078C250.813,532.777 250.826,533.496 250.839,534.233C250.584,534.208 250.336,534.195 250.095,534.195C249.866,534.195 249.624,534.208 249.37,534.233L249.427,532.421L249.389,532.421Z" style="fill:rgb(67,67,67);fill-rule:nonzero;stroke:black;stroke-width:0.24px;"/>
            <path d="M254.441,529.732C254.441,530.266 254.489,530.781 254.584,531.277C254.68,531.773 254.842,532.215 255.071,532.602C255.3,532.99 255.605,533.299 255.986,533.527C256.368,533.756 256.838,533.871 257.398,533.871C257.957,533.871 258.428,533.756 258.809,533.527C259.19,533.299 259.496,532.99 259.724,532.602C259.953,532.215 260.115,531.773 260.211,531.277C260.306,530.781 260.354,530.266 260.354,529.732C260.354,529.198 260.306,528.683 260.211,528.187C260.115,527.691 259.953,527.25 259.724,526.862C259.496,526.474 259.19,526.166 258.809,525.937C258.428,525.708 257.957,525.593 257.398,525.593C256.838,525.593 256.368,525.708 255.986,525.937C255.605,526.166 255.3,526.474 255.071,526.862C254.842,527.25 254.68,527.691 254.584,528.187C254.489,528.683 254.441,529.198 254.441,529.732ZM252.763,529.732C252.763,528.867 252.9,528.133 253.173,527.529C253.446,526.925 253.806,526.436 254.251,526.061C254.696,525.686 255.195,525.412 255.748,525.241C256.301,525.069 256.851,524.983 257.398,524.983C257.957,524.983 258.51,525.069 259.057,525.241C259.604,525.412 260.1,525.686 260.545,526.061C260.99,526.436 261.349,526.925 261.622,527.529C261.896,528.133 262.032,528.867 262.032,529.732C262.032,530.597 261.896,531.331 261.622,531.935C261.349,532.539 260.99,533.028 260.545,533.403C260.1,533.779 259.604,534.042 259.057,534.195C258.51,534.348 257.957,534.424 257.398,534.424C256.851,534.424 256.301,534.348 255.748,534.195C255.195,534.042 254.696,533.779 254.251,533.403C253.806,533.028 253.446,532.539 253.173,531.935C252.9,531.331 252.763,530.597 252.763,529.732Z" style="fill:rgb(67,67,67);fill-rule:nonzero;stroke:black;stroke-width:0.24px;"/>
            <path d="M270.365,528.874C270.365,527.92 270.181,527.199 269.812,526.709C269.443,526.22 268.935,525.975 268.286,525.975C267.396,525.975 266.744,526.248 266.331,526.795C265.918,527.342 265.711,528.111 265.711,529.103L265.711,530.724C265.711,531.296 265.721,531.897 265.74,532.526C265.759,533.156 265.8,533.725 265.864,534.233C265.571,534.208 265.285,534.195 265.006,534.195C264.726,534.195 264.44,534.208 264.147,534.233C264.211,533.725 264.252,533.156 264.271,532.526C264.29,531.897 264.3,531.296 264.3,530.724L264.3,528.74C264.3,528.168 264.29,527.567 264.271,526.938C264.252,526.309 264.211,525.721 264.147,525.174C264.503,525.237 264.79,525.269 265.006,525.269C265.107,525.269 265.219,525.26 265.339,525.241C265.46,525.221 265.603,525.199 265.769,525.174C265.73,525.682 265.711,526.191 265.711,526.7L265.75,526.7C266.106,526.153 266.531,525.73 267.027,525.431C267.523,525.132 268.114,524.983 268.801,524.983C269.157,524.983 269.516,525.034 269.879,525.136C270.241,525.237 270.568,525.412 270.861,525.66C271.153,525.908 271.392,526.245 271.576,526.671C271.76,527.097 271.853,527.64 271.853,528.302C271.853,528.848 271.84,529.411 271.814,529.99C271.789,530.568 271.776,531.182 271.776,531.83L271.776,533.07C271.776,533.273 271.78,533.473 271.786,533.671C271.792,533.868 271.802,534.055 271.814,534.233C271.56,534.208 271.293,534.195 271.013,534.195C270.746,534.195 270.486,534.208 270.231,534.233C270.257,533.572 270.286,532.892 270.317,532.192C270.349,531.493 270.365,530.775 270.365,530.037L270.365,528.874Z" style="fill:rgb(67,67,67);fill-rule:nonzero;stroke:black;stroke-width:0.24px;"/>
            <path d="M282.55,528.302C282.881,528.302 283.224,528.308 283.58,528.321C283.936,528.333 284.28,528.34 284.61,528.34C284.966,528.34 285.322,528.337 285.678,528.33C286.034,528.324 286.39,528.314 286.746,528.302L284.629,523.457L282.55,528.302ZM290.999,534.233C290.821,534.208 290.653,534.195 290.494,534.195L289.483,534.195C289.324,534.195 289.156,534.208 288.978,534.233C288.889,533.941 288.768,533.588 288.615,533.175C288.463,532.761 288.294,532.329 288.11,531.878C287.926,531.426 287.738,530.969 287.547,530.505C287.357,530.04 287.179,529.599 287.013,529.179C286.606,529.166 286.193,529.157 285.774,529.15C285.354,529.144 284.934,529.141 284.515,529.141C284.121,529.141 283.733,529.144 283.351,529.15C282.97,529.157 282.582,529.166 282.188,529.179C281.781,530.171 281.412,531.115 281.082,532.011C280.751,532.908 280.503,533.648 280.338,534.233C280.122,534.208 279.887,534.195 279.632,534.195C279.378,534.195 279.143,534.208 278.927,534.233C279.957,532.008 280.961,529.796 281.94,527.596C282.919,525.396 283.905,523.158 284.896,520.883L285.259,520.883C285.564,521.62 285.894,522.418 286.25,523.276C286.606,524.134 286.969,525.002 287.338,525.879C287.706,526.757 288.075,527.628 288.444,528.492C288.812,529.357 289.159,530.161 289.483,530.905C289.807,531.649 290.1,532.313 290.361,532.898C290.621,533.483 290.834,533.928 290.999,534.233Z" style="fill:rgb(67,67,67);fill-rule:nonzero;stroke:black;stroke-width:0.24px;"/>
            <path d="M297.139,526.738C297.075,526.661 296.951,526.592 296.767,526.528C296.583,526.464 296.395,526.433 296.204,526.433C295.899,526.433 295.626,526.503 295.384,526.642C295.143,526.782 294.939,526.97 294.774,527.205C294.609,527.44 294.482,527.72 294.392,528.044C294.303,528.368 294.259,528.715 294.259,529.084L294.259,531.182C294.259,532.033 294.262,532.685 294.269,533.136C294.275,533.588 294.297,533.953 294.335,534.233C294.081,534.208 293.827,534.195 293.572,534.195C293.293,534.195 293.026,534.208 292.771,534.233C292.809,533.801 292.832,533.213 292.838,532.469C292.844,531.725 292.848,530.813 292.848,529.732L292.848,529.122C292.848,528.626 292.844,528.054 292.838,527.405C292.832,526.757 292.809,526.013 292.771,525.174C292.911,525.199 293.045,525.221 293.172,525.241C293.299,525.26 293.433,525.269 293.572,525.269C293.687,525.269 293.808,525.26 293.935,525.241C294.062,525.221 294.195,525.199 294.335,525.174C294.284,525.632 294.256,525.994 294.249,526.261C294.243,526.528 294.24,526.782 294.24,527.024L294.278,527.043C295.028,525.67 295.867,524.983 296.796,524.983C296.91,524.983 297.009,524.989 297.091,525.002C297.174,525.015 297.279,525.047 297.406,525.098C297.342,525.25 297.304,525.482 297.291,525.794C297.279,526.105 297.272,526.388 297.272,526.642L297.139,526.738Z" style="fill:rgb(67,67,67);fill-rule:nonzero;stroke:black;stroke-width:0.24px;"/>
            <path d="M298.472,529.732C298.472,528.906 298.612,528.194 298.892,527.596C299.171,526.998 299.537,526.506 299.988,526.118C300.44,525.73 300.958,525.444 301.543,525.26C302.128,525.075 302.725,524.983 303.336,524.983C304.035,524.983 304.661,525.069 305.214,525.241C305.767,525.412 306.165,525.606 306.406,525.822C306.317,526.013 306.238,526.213 306.168,526.423C306.098,526.633 306.038,526.852 305.987,527.081L305.834,527.081C305.745,526.916 305.624,526.747 305.472,526.576C305.319,526.404 305.138,526.245 304.928,526.099C304.718,525.953 304.486,525.832 304.232,525.736C303.978,525.641 303.698,525.593 303.393,525.593C302.821,525.593 302.328,525.698 301.915,525.908C301.501,526.118 301.165,526.407 300.904,526.776C300.643,527.145 300.453,527.58 300.332,528.082C300.211,528.585 300.151,529.128 300.151,529.713C300.151,531.023 300.43,532.011 300.99,532.679C301.549,533.346 302.369,533.68 303.45,533.68C303.704,533.68 303.965,533.645 304.232,533.575C304.499,533.505 304.76,533.41 305.014,533.289C305.268,533.168 305.507,533.025 305.729,532.86C305.952,532.695 306.146,532.517 306.311,532.326L306.406,532.383C306.343,532.688 306.305,533 306.292,533.318C305.91,533.623 305.437,533.883 304.871,534.1C304.305,534.316 303.717,534.424 303.107,534.424C302.56,534.424 302.01,534.344 301.457,534.185C300.904,534.027 300.405,533.76 299.96,533.384C299.515,533.009 299.156,532.523 298.882,531.925C298.609,531.328 298.472,530.597 298.472,529.732Z" style="fill:rgb(67,67,67);fill-rule:nonzero;stroke:black;stroke-width:0.24px;"/>
            <path d="M308.808,525.345C308.808,524.913 308.804,524.443 308.798,523.934C308.792,523.426 308.782,522.923 308.769,522.427C308.757,521.932 308.741,521.458 308.722,521.007C308.703,520.555 308.68,520.171 308.655,519.853C309.011,519.916 309.297,519.948 309.513,519.948C309.729,519.948 310.015,519.916 310.371,519.853C310.346,520.171 310.324,520.552 310.305,520.997C310.286,521.442 310.27,521.909 310.257,522.399C310.244,522.888 310.235,523.381 310.228,523.877C310.222,524.373 310.219,524.831 310.219,525.25L310.219,526.7L310.257,526.7C310.613,526.153 311.039,525.73 311.535,525.431C312.031,525.132 312.622,524.983 313.309,524.983C313.665,524.983 314.024,525.034 314.386,525.136C314.749,525.237 315.076,525.412 315.368,525.66C315.661,525.908 315.899,526.245 316.084,526.671C316.268,527.097 316.36,527.64 316.36,528.302C316.36,528.848 316.347,529.411 316.322,529.99C316.297,530.568 316.284,531.182 316.284,531.83L316.284,533.07C316.284,533.273 316.287,533.473 316.293,533.671C316.3,533.868 316.309,534.055 316.322,534.233C316.068,534.208 315.801,534.195 315.521,534.195C315.254,534.195 314.993,534.208 314.739,534.233C314.764,533.572 314.793,532.892 314.825,532.192C314.857,531.493 314.873,530.775 314.873,530.037L314.873,528.874C314.873,527.92 314.688,527.199 314.319,526.709C313.951,526.22 313.442,525.975 312.794,525.975C311.904,525.975 311.252,526.248 310.839,526.795C310.426,527.342 310.219,528.111 310.219,529.103C310.219,529.459 310.222,529.872 310.228,530.342C310.235,530.813 310.244,531.286 310.257,531.763C310.27,532.24 310.286,532.701 310.305,533.146C310.324,533.591 310.346,533.953 310.371,534.233C310.079,534.208 309.793,534.195 309.513,534.195C309.234,534.195 308.947,534.208 308.655,534.233C308.68,533.941 308.703,533.572 308.722,533.127C308.741,532.682 308.757,532.211 308.769,531.716C308.782,531.22 308.792,530.717 308.798,530.209C308.804,529.7 308.808,529.23 308.808,528.798L308.808,525.345Z" style="fill:rgb(67,67,67);fill-rule:nonzero;stroke:black;stroke-width:0.24px;"/>
            <path d="M319.486,521.855C319.486,521.588 319.582,521.359 319.772,521.169C319.963,520.978 320.192,520.883 320.459,520.883C320.726,520.883 320.955,520.978 321.146,521.169C321.336,521.359 321.432,521.588 321.432,521.855C321.432,522.122 321.336,522.351 321.146,522.542C320.955,522.733 320.726,522.828 320.459,522.828C320.192,522.828 319.963,522.733 319.772,522.542C319.582,522.351 319.486,522.122 319.486,521.855ZM319.753,528.74C319.753,528.168 319.744,527.567 319.725,526.938C319.706,526.309 319.664,525.721 319.601,525.174C319.957,525.237 320.243,525.269 320.459,525.269C320.675,525.269 320.961,525.237 321.317,525.174C321.254,525.721 321.212,526.309 321.193,526.938C321.174,527.567 321.165,528.168 321.165,528.74L321.165,530.724C321.165,531.296 321.174,531.897 321.193,532.526C321.212,533.156 321.254,533.725 321.317,534.233C321.025,534.208 320.739,534.195 320.459,534.195C320.179,534.195 319.893,534.208 319.601,534.233C319.664,533.725 319.706,533.156 319.725,532.526C319.744,531.897 319.753,531.296 319.753,530.724L319.753,528.74Z" style="fill:rgb(67,67,67);fill-rule:nonzero;stroke:black;stroke-width:0.24px;"/>
            <path d="M326.293,522.618C326.255,523.101 326.226,523.575 326.207,524.039C326.188,524.503 326.166,524.97 326.141,525.441C326.281,525.441 326.541,525.438 326.923,525.431C327.304,525.425 327.717,525.409 328.162,525.384C328.15,525.422 328.143,525.492 328.143,525.593L328.143,525.994C328.143,526.083 328.15,526.146 328.162,526.185C327.997,526.172 327.825,526.162 327.647,526.156C327.469,526.15 327.279,526.146 327.075,526.146L326.141,526.146C326.128,526.197 326.112,526.401 326.093,526.757C326.074,527.113 326.058,527.536 326.045,528.025C326.033,528.515 326.023,529.026 326.017,529.56C326.01,530.094 326.007,530.571 326.007,530.991C326.007,531.347 326.017,531.697 326.036,532.04C326.055,532.383 326.115,532.691 326.217,532.965C326.319,533.238 326.471,533.458 326.675,533.623C326.878,533.788 327.171,533.871 327.552,533.871C327.654,533.871 327.79,533.858 327.962,533.833C328.134,533.807 328.283,533.775 328.41,533.737L328.41,534.195C328.194,534.233 327.956,534.281 327.695,534.338C327.434,534.395 327.183,534.424 326.942,534.424C326.141,534.424 325.549,534.227 325.168,533.833C324.787,533.438 324.596,532.86 324.596,532.097C324.596,531.754 324.602,531.382 324.615,530.981C324.628,530.581 324.643,530.142 324.663,529.665C324.682,529.189 324.698,528.661 324.71,528.082C324.723,527.504 324.729,526.859 324.729,526.146L324.119,526.146C324.017,526.146 323.909,526.15 323.795,526.156C323.68,526.162 323.56,526.172 323.432,526.185C323.445,526.108 323.455,526.035 323.461,525.965C323.467,525.895 323.471,525.822 323.471,525.746C323.471,525.682 323.467,525.619 323.461,525.555C323.455,525.492 323.445,525.428 323.432,525.365C324.005,525.403 324.424,525.422 324.691,525.422C324.678,525.167 324.669,524.85 324.663,524.468C324.656,524.087 324.64,523.693 324.615,523.286L326.198,522.618L326.293,522.618Z" style="fill:rgb(67,67,67);fill-rule:nonzero;stroke:black;stroke-width:0.24px;"/>
            <path d="M333.482,525.593C333.011,525.593 332.614,525.701 332.29,525.918C331.965,526.134 331.698,526.404 331.489,526.728C331.279,527.052 331.12,527.408 331.012,527.796C330.904,528.184 330.837,528.55 330.812,528.893C331.206,528.906 331.616,528.918 332.042,528.931C332.468,528.944 332.884,528.95 333.291,528.95C333.711,528.95 334.137,528.944 334.569,528.931C335.001,528.918 335.421,528.906 335.828,528.893C335.828,528.55 335.799,528.187 335.742,527.806C335.685,527.424 335.57,527.068 335.398,526.738C335.227,526.407 334.988,526.134 334.683,525.918C334.378,525.701 333.978,525.593 333.482,525.593ZM329.076,529.999C329.076,528.435 329.448,527.208 330.192,526.318C330.936,525.428 332.019,524.983 333.444,524.983C334.117,524.983 334.699,525.088 335.189,525.298C335.678,525.508 336.088,525.787 336.419,526.137C336.749,526.487 336.994,526.897 337.153,527.367C337.312,527.838 337.392,528.34 337.392,528.874C337.392,529.001 337.388,529.125 337.382,529.246C337.376,529.367 337.366,529.49 337.353,529.618C336.667,529.605 335.987,529.592 335.313,529.58C334.639,529.567 333.959,529.56 333.272,529.56C332.852,529.56 332.436,529.567 332.023,529.58C331.609,529.592 331.193,529.605 330.773,529.618C330.761,529.681 330.754,529.777 330.754,529.904L330.754,530.152C330.754,530.648 330.827,531.112 330.974,531.544C331.12,531.976 331.333,532.348 331.613,532.66C331.892,532.971 332.236,533.219 332.643,533.403C333.049,533.588 333.52,533.68 334.054,533.68C334.308,533.68 334.569,533.645 334.836,533.575C335.103,533.505 335.364,533.41 335.618,533.289C335.872,533.168 336.111,533.025 336.333,532.86C336.556,532.695 336.749,532.517 336.915,532.326L337.01,532.383L336.896,533.318C336.514,533.623 336.041,533.883 335.475,534.1C334.909,534.316 334.321,534.424 333.711,534.424C333.024,534.424 332.398,534.319 331.832,534.109C331.266,533.899 330.777,533.594 330.363,533.194C329.95,532.793 329.632,532.32 329.41,531.773C329.187,531.226 329.076,530.635 329.076,529.999Z" style="fill:rgb(67,67,67);fill-rule:nonzero;stroke:black;stroke-width:0.24px;"/>
            <path d="M338.744,529.732C338.744,528.906 338.884,528.194 339.163,527.596C339.443,526.998 339.809,526.506 340.26,526.118C340.711,525.73 341.23,525.444 341.815,525.26C342.399,525.075 342.997,524.983 343.607,524.983C344.307,524.983 344.933,525.069 345.486,525.241C346.039,525.412 346.436,525.606 346.678,525.822C346.589,526.013 346.509,526.213 346.44,526.423C346.37,526.633 346.309,526.852 346.258,527.081L346.106,527.081C346.017,526.916 345.896,526.747 345.743,526.576C345.591,526.404 345.41,526.245 345.2,526.099C344.99,525.953 344.758,525.832 344.504,525.736C344.249,525.641 343.97,525.593 343.665,525.593C343.092,525.593 342.6,525.698 342.186,525.908C341.773,526.118 341.436,526.407 341.176,526.776C340.915,527.145 340.724,527.58 340.603,528.082C340.483,528.585 340.422,529.128 340.422,529.713C340.422,531.023 340.702,532.011 341.261,532.679C341.821,533.346 342.641,533.68 343.722,533.68C343.976,533.68 344.237,533.645 344.504,533.575C344.771,533.505 345.031,533.41 345.286,533.289C345.54,533.168 345.778,533.025 346.001,532.86C346.223,532.695 346.417,532.517 346.583,532.326L346.678,532.383C346.614,532.688 346.576,533 346.564,533.318C346.182,533.623 345.708,533.883 345.143,534.1C344.577,534.316 343.989,534.424 343.378,534.424C342.832,534.424 342.282,534.344 341.729,534.185C341.176,534.027 340.677,533.76 340.231,533.384C339.786,533.009 339.427,532.523 339.154,531.925C338.881,531.328 338.744,530.597 338.744,529.732Z" style="fill:rgb(67,67,67);fill-rule:nonzero;stroke:black;stroke-width:0.24px;"/>
            <path d="M350.662,522.618C350.624,523.101 350.595,523.575 350.576,524.039C350.557,524.503 350.535,524.97 350.51,525.441C350.65,525.441 350.91,525.438 351.292,525.431C351.673,525.425 352.086,525.409 352.531,525.384C352.519,525.422 352.512,525.492 352.512,525.593L352.512,525.994C352.512,526.083 352.519,526.146 352.531,526.185C352.366,526.172 352.194,526.162 352.016,526.156C351.838,526.15 351.648,526.146 351.444,526.146L350.51,526.146C350.497,526.197 350.481,526.401 350.462,526.757C350.443,527.113 350.427,527.536 350.414,528.025C350.402,528.515 350.392,529.026 350.386,529.56C350.379,530.094 350.376,530.571 350.376,530.991C350.376,531.347 350.386,531.697 350.405,532.04C350.424,532.383 350.484,532.691 350.586,532.965C350.688,533.238 350.84,533.458 351.044,533.623C351.247,533.788 351.54,533.871 351.921,533.871C352.023,533.871 352.159,533.858 352.331,533.833C352.503,533.807 352.652,533.775 352.779,533.737L352.779,534.195C352.563,534.233 352.325,534.281 352.064,534.338C351.803,534.395 351.552,534.424 351.311,534.424C350.51,534.424 349.918,534.227 349.537,533.833C349.156,533.438 348.965,532.86 348.965,532.097C348.965,531.754 348.971,531.382 348.984,530.981C348.997,530.581 349.012,530.142 349.032,529.665C349.051,529.189 349.067,528.661 349.079,528.082C349.092,527.504 349.098,526.859 349.098,526.146L348.488,526.146C348.386,526.146 348.278,526.15 348.164,526.156C348.049,526.162 347.929,526.172 347.801,526.185C347.814,526.108 347.824,526.035 347.83,525.965C347.836,525.895 347.84,525.822 347.84,525.746C347.84,525.682 347.836,525.619 347.83,525.555C347.824,525.492 347.814,525.428 347.801,525.365C348.374,525.403 348.793,525.422 349.06,525.422C349.047,525.167 349.038,524.85 349.032,524.468C349.025,524.087 349.009,523.693 348.984,523.286L350.567,522.618L350.662,522.618Z" style="fill:rgb(67,67,67);fill-rule:nonzero;stroke:black;stroke-width:0.24px;"/>
            <path d="M354.227,531.353C354.227,530.679 354.237,530.104 354.256,529.627C354.275,529.15 354.284,528.677 354.284,528.206C354.284,527.761 354.281,527.278 354.275,526.757C354.268,526.235 354.259,525.708 354.246,525.174C354.564,525.237 354.831,525.269 355.047,525.269C355.251,525.269 355.511,525.237 355.829,525.174C355.765,525.937 355.718,526.773 355.686,527.682C355.654,528.591 355.638,529.522 355.638,530.476C355.638,531.137 355.696,531.642 355.81,531.992C355.924,532.342 356.064,532.606 356.23,532.784C356.408,532.987 356.633,533.156 356.907,533.289C357.18,533.423 357.501,533.489 357.87,533.489C358.404,533.489 358.849,533.372 359.205,533.136C359.561,532.901 359.822,532.612 359.987,532.269C360.076,532.053 360.146,531.868 360.197,531.716C360.247,531.563 360.289,531.36 360.321,531.105C360.352,530.851 360.371,530.508 360.378,530.075C360.384,529.643 360.387,529.052 360.387,528.302L360.387,526.7C360.387,526.42 360.384,526.153 360.378,525.899C360.371,525.644 360.362,525.403 360.349,525.174C360.489,525.199 360.623,525.221 360.75,525.241C360.877,525.26 361.01,525.269 361.15,525.269C361.29,525.269 361.424,525.26 361.551,525.241C361.678,525.221 361.805,525.199 361.932,525.174C361.869,526.166 361.83,527.122 361.818,528.044C361.805,528.966 361.799,529.942 361.799,530.972C361.799,531.544 361.805,532.103 361.818,532.65C361.83,533.197 361.85,533.725 361.875,534.233C361.621,534.208 361.373,534.195 361.131,534.195C360.89,534.195 360.642,534.208 360.387,534.233C360.4,534.119 360.41,533.998 360.416,533.871C360.422,533.744 360.425,533.61 360.425,533.47L360.425,532.65L360.387,532.65C360.057,533.26 359.631,533.709 359.109,533.995C358.588,534.281 358.022,534.424 357.412,534.424C356.42,534.424 355.641,534.16 355.076,533.632C354.51,533.105 354.227,532.345 354.227,531.353Z" style="fill:rgb(67,67,67);fill-rule:nonzero;stroke:black;stroke-width:0.24px;"/>
            <path d="M369.197,526.738C369.133,526.661 369.009,526.592 368.825,526.528C368.641,526.464 368.453,526.433 368.262,526.433C367.957,526.433 367.684,526.503 367.442,526.642C367.201,526.782 366.997,526.97 366.832,527.205C366.667,527.44 366.54,527.72 366.451,528.044C366.362,528.368 366.317,528.715 366.317,529.084L366.317,531.182C366.317,532.033 366.32,532.685 366.327,533.136C366.333,533.588 366.355,533.953 366.393,534.233C366.139,534.208 365.885,534.195 365.63,534.195C365.351,534.195 365.084,534.208 364.829,534.233C364.868,533.801 364.89,533.213 364.896,532.469C364.902,531.725 364.906,530.813 364.906,529.732L364.906,529.122C364.906,528.626 364.902,528.054 364.896,527.405C364.89,526.757 364.868,526.013 364.829,525.174C364.969,525.199 365.103,525.221 365.23,525.241C365.357,525.26 365.491,525.269 365.63,525.269C365.745,525.269 365.866,525.26 365.993,525.241C366.12,525.221 366.253,525.199 366.393,525.174C366.342,525.632 366.314,525.994 366.307,526.261C366.301,526.528 366.298,526.782 366.298,527.024L366.336,527.043C367.086,525.67 367.925,524.983 368.854,524.983C368.968,524.983 369.067,524.989 369.149,525.002C369.232,525.015 369.337,525.047 369.464,525.098C369.4,525.25 369.362,525.482 369.349,525.794C369.337,526.105 369.33,526.388 369.33,526.642L369.197,526.738Z" style="fill:rgb(67,67,67);fill-rule:nonzero;stroke:black;stroke-width:0.24px;"/>
            <path d="M376.08,529.484C375.864,529.56 375.613,529.624 375.327,529.675C375.041,529.726 374.752,529.78 374.459,529.837C374.167,529.894 373.877,529.967 373.591,530.056C373.305,530.145 373.051,530.266 372.828,530.419C372.606,530.571 372.428,530.762 372.294,530.991C372.161,531.22 372.094,531.512 372.094,531.868C372.094,532.466 372.266,532.917 372.609,533.222C372.952,533.527 373.334,533.68 373.753,533.68C374.237,533.68 374.678,533.547 375.079,533.28C375.479,533.013 375.788,532.701 376.004,532.345L376.08,529.484ZM371.369,526.089C371.942,525.657 372.469,525.365 372.952,525.212C373.436,525.059 373.931,524.983 374.44,524.983C374.898,524.983 375.317,525.05 375.699,525.183C376.08,525.317 376.404,525.508 376.671,525.756C376.938,526.003 377.148,526.302 377.301,526.652C377.453,527.002 377.53,527.386 377.53,527.806C377.53,528.531 377.517,529.252 377.492,529.97C377.466,530.689 377.453,531.449 377.453,532.25C377.453,532.402 377.457,532.564 377.463,532.736C377.469,532.908 377.498,533.06 377.549,533.194C377.6,533.327 377.673,533.438 377.768,533.527C377.863,533.616 378.007,533.661 378.197,533.661C378.261,533.661 378.328,533.658 378.398,533.651C378.467,533.645 378.534,533.623 378.598,533.585L378.598,534.004C378.458,534.068 378.283,534.119 378.073,534.157C377.863,534.195 377.631,534.214 377.377,534.214C376.97,534.214 376.659,534.109 376.443,533.899C376.226,533.69 376.099,533.419 376.061,533.089C375.603,533.547 375.152,533.883 374.707,534.1C374.262,534.316 373.715,534.424 373.067,534.424C372.749,534.424 372.437,534.379 372.132,534.29C371.827,534.201 371.557,534.055 371.322,533.852C371.086,533.648 370.896,533.403 370.75,533.117C370.603,532.831 370.53,532.504 370.53,532.135C370.53,531.372 370.769,530.781 371.245,530.361C371.722,529.942 372.38,529.662 373.219,529.522C373.906,529.408 374.443,529.309 374.831,529.227C375.219,529.144 375.505,529.058 375.689,528.969C375.874,528.88 375.985,528.775 376.023,528.654C376.061,528.534 376.08,528.378 376.08,528.187C376.08,527.869 376.042,527.564 375.966,527.272C375.889,526.979 375.769,526.725 375.603,526.509C375.438,526.293 375.222,526.118 374.955,525.984C374.688,525.851 374.364,525.784 373.982,525.784C373.474,525.784 373,525.899 372.561,526.127C372.123,526.356 371.795,526.674 371.579,527.081L371.369,527.081L371.369,526.089Z" style="fill:rgb(67,67,67);fill-rule:nonzero;stroke:black;stroke-width:0.24px;"/>
            <path d="M381.209,525.345C381.209,524.913 381.206,524.443 381.199,523.934C381.193,523.426 381.183,522.923 381.171,522.427C381.158,521.932 381.142,521.458 381.123,521.007C381.104,520.555 381.082,520.171 381.056,519.853C381.412,519.916 381.698,519.948 381.915,519.948C382.131,519.948 382.417,519.916 382.773,519.853C382.747,520.171 382.725,520.555 382.706,521.007C382.687,521.458 382.671,521.932 382.658,522.427C382.646,522.923 382.636,523.426 382.63,523.934C382.623,524.443 382.62,524.913 382.62,525.345L382.62,528.798C382.62,529.23 382.623,529.7 382.63,530.209C382.636,530.717 382.646,531.22 382.658,531.716C382.671,532.211 382.687,532.682 382.706,533.127C382.725,533.572 382.747,533.941 382.773,534.233C382.48,534.208 382.194,534.195 381.915,534.195C381.635,534.195 381.349,534.208 381.056,534.233C381.082,533.941 381.104,533.572 381.123,533.127C381.142,532.682 381.158,532.211 381.171,531.716C381.183,531.22 381.193,530.717 381.199,530.209C381.206,529.7 381.209,529.23 381.209,528.798L381.209,525.345Z" style="fill:rgb(67,67,67);fill-rule:nonzero;stroke:black;stroke-width:0.24px;"/>
            <path d="M278.146,543.01C277.955,542.781 277.716,542.552 277.43,542.323C277.144,542.094 276.826,541.894 276.477,541.722C276.127,541.551 275.739,541.411 275.313,541.303C274.887,541.195 274.433,541.141 273.95,541.141C273.161,541.141 272.427,541.261 271.747,541.503C271.067,541.744 270.475,542.116 269.973,542.619C269.471,543.121 269.077,543.757 268.791,544.526C268.504,545.295 268.361,546.207 268.361,547.263C268.361,548.191 268.489,549.03 268.743,549.78C268.997,550.53 269.369,551.163 269.859,551.678C270.348,552.193 270.946,552.59 271.651,552.87C272.357,553.15 273.155,553.29 274.045,553.29C274.312,553.29 274.592,553.277 274.884,553.251C275.177,553.226 275.459,553.188 275.733,553.137C276.006,553.086 276.261,553.023 276.496,552.946C276.731,552.87 276.931,552.781 277.097,552.679C277.109,552.298 277.119,551.916 277.125,551.535C277.132,551.153 277.135,550.766 277.135,550.372C277.135,549.926 277.125,549.481 277.106,549.036C277.087,548.591 277.065,548.165 277.039,547.759C277.357,547.822 277.662,547.854 277.955,547.854C278.095,547.854 278.235,547.848 278.374,547.835C278.514,547.822 278.648,547.797 278.775,547.759C278.749,548.051 278.73,548.512 278.718,549.141C278.705,549.771 278.699,550.6 278.699,551.63C278.699,551.885 278.702,552.142 278.708,552.403C278.715,552.663 278.718,552.921 278.718,553.175C278.451,553.277 278.117,553.382 277.716,553.49C277.316,553.598 276.89,553.687 276.439,553.757C275.987,553.827 275.536,553.89 275.084,553.948C274.633,554.005 274.223,554.033 273.854,554.033C272.723,554.033 271.702,553.897 270.793,553.623C269.884,553.35 269.112,552.927 268.476,552.355C267.84,551.783 267.351,551.071 267.007,550.219C266.664,549.367 266.492,548.382 266.492,547.263C266.492,546.182 266.67,545.219 267.026,544.373C267.382,543.528 267.885,542.813 268.533,542.228C269.182,541.643 269.967,541.198 270.889,540.893C271.81,540.587 272.831,540.435 273.95,540.435C274.598,540.435 275.173,540.47 275.676,540.54C276.178,540.61 276.623,540.702 277.011,540.816C277.399,540.931 277.739,541.052 278.031,541.179C278.324,541.306 278.584,541.427 278.813,541.541C278.711,541.719 278.619,541.948 278.536,542.228C278.454,542.507 278.4,542.768 278.374,543.01L278.146,543.01Z" style="fill:rgb(67,67,67);fill-rule:nonzero;stroke:black;stroke-width:0.24px;"/>
            <path d="M282.134,544.898C282.134,544.465 282.13,543.995 282.124,543.486C282.118,542.978 282.108,542.476 282.095,541.98C282.083,541.484 282.067,541.01 282.048,540.559C282.029,540.107 282.006,539.723 281.981,539.405C282.337,539.469 282.623,539.5 282.839,539.5C283.055,539.5 283.341,539.469 283.697,539.405C283.672,539.723 283.65,540.107 283.631,540.559C283.612,541.01 283.596,541.484 283.583,541.98C283.57,542.476 283.561,542.978 283.554,543.486C283.548,543.995 283.545,544.465 283.545,544.898L283.545,548.35C283.545,548.782 283.548,549.253 283.554,549.761C283.561,550.27 283.57,550.772 283.583,551.268C283.596,551.764 283.612,552.234 283.631,552.679C283.65,553.124 283.672,553.493 283.697,553.785C283.405,553.76 283.119,553.747 282.839,553.747C282.559,553.747 282.273,553.76 281.981,553.785C282.006,553.493 282.029,553.124 282.048,552.679C282.067,552.234 282.083,551.764 282.095,551.268C282.108,550.772 282.118,550.27 282.124,549.761C282.13,549.253 282.134,548.782 282.134,548.35L282.134,544.898Z" style="fill:rgb(67,67,67);fill-rule:nonzero;stroke:black;stroke-width:0.24px;"/>
            <path d="M291.843,549.036C291.627,549.113 291.376,549.176 291.09,549.227C290.804,549.278 290.515,549.332 290.222,549.389C289.93,549.446 289.64,549.52 289.354,549.609C289.068,549.698 288.814,549.818 288.591,549.971C288.369,550.124 288.191,550.314 288.057,550.543C287.924,550.772 287.857,551.064 287.857,551.42C287.857,552.018 288.029,552.469 288.372,552.775C288.715,553.08 289.097,553.232 289.516,553.232C290,553.232 290.441,553.099 290.842,552.832C291.242,552.565 291.551,552.253 291.767,551.897L291.843,549.036ZM287.132,545.642C287.705,545.209 288.232,544.917 288.715,544.764C289.199,544.612 289.694,544.535 290.203,544.535C290.661,544.535 291.08,544.602 291.462,544.736C291.843,544.869 292.167,545.06 292.434,545.308C292.701,545.556 292.911,545.855 293.064,546.204C293.216,546.554 293.293,546.938 293.293,547.358C293.293,548.083 293.28,548.804 293.255,549.523C293.229,550.241 293.216,551.001 293.216,551.802C293.216,551.955 293.22,552.117 293.226,552.288C293.232,552.46 293.261,552.612 293.312,552.746C293.363,552.88 293.436,552.991 293.531,553.08C293.626,553.169 293.77,553.213 293.96,553.213C294.024,553.213 294.091,553.21 294.161,553.204C294.23,553.197 294.297,553.175 294.361,553.137L294.361,553.557C294.221,553.62 294.046,553.671 293.836,553.709C293.626,553.747 293.394,553.766 293.14,553.766C292.733,553.766 292.422,553.661 292.206,553.452C291.989,553.242 291.862,552.972 291.824,552.641C291.366,553.099 290.915,553.436 290.47,553.652C290.025,553.868 289.478,553.976 288.83,553.976C288.512,553.976 288.2,553.932 287.895,553.843C287.59,553.754 287.32,553.607 287.085,553.404C286.849,553.201 286.659,552.956 286.513,552.67C286.366,552.384 286.293,552.056 286.293,551.687C286.293,550.925 286.532,550.333 287.008,549.914C287.485,549.494 288.143,549.214 288.982,549.075C289.669,548.96 290.206,548.862 290.594,548.779C290.982,548.696 291.268,548.61 291.452,548.521C291.637,548.432 291.748,548.328 291.786,548.207C291.824,548.086 291.843,547.93 291.843,547.74C291.843,547.422 291.805,547.116 291.729,546.824C291.653,546.532 291.532,546.277 291.366,546.061C291.201,545.845 290.985,545.67 290.718,545.537C290.451,545.403 290.127,545.336 289.745,545.336C289.237,545.336 288.763,545.451 288.324,545.68C287.886,545.909 287.558,546.226 287.342,546.633L287.132,546.633L287.132,545.642Z" style="fill:rgb(67,67,67);fill-rule:nonzero;stroke:black;stroke-width:0.24px;"/>
            <path d="M295.679,553.576C296.225,552.914 296.788,552.209 297.367,551.459C297.945,550.708 298.508,549.971 299.054,549.246C299.601,548.521 300.113,547.835 300.59,547.186C301.067,546.538 301.477,545.985 301.82,545.527C301.731,545.527 301.48,545.533 301.067,545.546C300.653,545.559 300.18,545.581 299.646,545.613C299.112,545.645 298.568,545.677 298.015,545.708C297.462,545.74 297.007,545.775 296.651,545.813C296.69,545.635 296.709,545.457 296.709,545.279C296.709,545.114 296.69,544.93 296.651,544.726C297.058,544.764 297.656,544.79 298.444,544.802C299.232,544.815 300.224,544.821 301.419,544.821L302.144,544.821C302.373,544.821 302.583,544.815 302.774,544.802C302.964,544.79 303.152,544.777 303.336,544.764C303.521,544.752 303.714,544.739 303.918,544.726L303.918,545.012C303.409,545.673 302.853,546.401 302.249,547.196C301.645,547.991 301.057,548.766 300.485,549.523C299.913,550.279 299.391,550.972 298.921,551.602C298.451,552.231 298.095,552.711 297.853,553.042C298.374,553.042 298.854,553.038 299.293,553.032C299.732,553.026 300.173,553.013 300.618,552.994C301.063,552.975 301.54,552.949 302.049,552.918C302.557,552.886 303.149,552.838 303.823,552.775C303.772,552.927 303.746,553.105 303.746,553.309C303.746,553.512 303.772,553.671 303.823,553.785C303.022,553.76 302.227,553.747 301.439,553.747L297.367,553.747C296.813,553.747 296.251,553.76 295.679,553.785L295.679,553.576Z" style="fill:rgb(67,67,67);fill-rule:nonzero;stroke:black;stroke-width:0.24px;"/>
            <path d="M306.247,541.408C306.247,541.141 306.342,540.912 306.533,540.721C306.723,540.53 306.952,540.435 307.219,540.435C307.486,540.435 307.715,540.53 307.906,540.721C308.097,540.912 308.192,541.141 308.192,541.408C308.192,541.675 308.097,541.903 307.906,542.094C307.715,542.285 307.486,542.38 307.219,542.38C306.952,542.38 306.723,542.285 306.533,542.094C306.342,541.903 306.247,541.675 306.247,541.408ZM306.514,548.293C306.514,547.72 306.504,547.12 306.485,546.49C306.466,545.861 306.425,545.273 306.361,544.726C306.717,544.79 307.003,544.821 307.219,544.821C307.435,544.821 307.722,544.79 308.078,544.726C308.014,545.273 307.973,545.861 307.954,546.49C307.935,547.12 307.925,547.72 307.925,548.293L307.925,550.276C307.925,550.848 307.935,551.449 307.954,552.078C307.973,552.708 308.014,553.277 308.078,553.785C307.785,553.76 307.499,553.747 307.219,553.747C306.94,553.747 306.654,553.76 306.361,553.785C306.425,553.277 306.466,552.708 306.485,552.078C306.504,551.449 306.514,550.848 306.514,550.276L306.514,548.293Z" style="fill:rgb(67,67,67);fill-rule:nonzero;stroke:black;stroke-width:0.24px;"/>
            <path d="M317.539,548.426C317.539,547.473 317.355,546.751 316.986,546.261C316.618,545.772 316.109,545.527 315.46,545.527C314.57,545.527 313.919,545.801 313.506,546.347C313.092,546.894 312.886,547.663 312.886,548.655L312.886,550.276C312.886,550.848 312.895,551.449 312.914,552.078C312.933,552.708 312.975,553.277 313.038,553.785C312.746,553.76 312.46,553.747 312.18,553.747C311.9,553.747 311.614,553.76 311.322,553.785C311.385,553.277 311.427,552.708 311.446,552.078C311.465,551.449 311.474,550.848 311.474,550.276L311.474,548.293C311.474,547.72 311.465,547.12 311.446,546.49C311.427,545.861 311.385,545.273 311.322,544.726C311.678,544.79 311.964,544.821 312.18,544.821C312.282,544.821 312.393,544.812 312.514,544.793C312.635,544.774 312.778,544.752 312.943,544.726C312.905,545.235 312.886,545.743 312.886,546.252L312.924,546.252C313.28,545.705 313.706,545.282 314.202,544.984C314.698,544.685 315.289,544.535 315.975,544.535C316.331,544.535 316.691,544.586 317.053,544.688C317.415,544.79 317.743,544.965 318.035,545.212C318.328,545.46 318.566,545.797 318.75,546.223C318.935,546.649 319.027,547.193 319.027,547.854C319.027,548.401 319.014,548.963 318.989,549.542C318.963,550.12 318.951,550.734 318.951,551.382L318.951,552.622C318.951,552.825 318.954,553.026 318.96,553.223C318.967,553.42 318.976,553.607 318.989,553.785C318.735,553.76 318.468,553.747 318.188,553.747C317.921,553.747 317.66,553.76 317.406,553.785C317.431,553.124 317.46,552.444 317.492,551.745C317.523,551.045 317.539,550.327 317.539,549.59L317.539,548.426Z" style="fill:rgb(67,67,67);fill-rule:nonzero;stroke:black;stroke-width:0.24px;"/>
            <path d="M328.203,555.807C328.203,555.044 327.98,554.51 327.535,554.205C327.09,553.9 326.353,553.747 325.323,553.747C324.369,553.747 323.632,553.903 323.11,554.215C322.589,554.526 322.328,555.089 322.328,555.902C322.328,556.335 322.402,556.704 322.548,557.009C322.694,557.314 322.891,557.562 323.139,557.752C323.387,557.943 323.683,558.083 324.026,558.172C324.369,558.261 324.738,558.306 325.132,558.306C325.513,558.306 325.889,558.255 326.257,558.153C326.626,558.051 326.953,557.899 327.24,557.695C327.526,557.492 327.758,557.234 327.936,556.923C328.114,556.611 328.203,556.239 328.203,555.807ZM327.173,547.549C327.173,546.748 326.982,546.137 326.601,545.718C326.219,545.298 325.717,545.088 325.094,545.088C324.407,545.088 323.873,545.321 323.492,545.785C323.11,546.249 322.92,546.869 322.92,547.644C322.92,548.445 323.094,549.078 323.444,549.542C323.794,550.006 324.337,550.238 325.075,550.238C325.444,550.238 325.758,550.165 326.019,550.019C326.28,549.872 326.496,549.675 326.667,549.427C326.839,549.179 326.966,548.893 327.049,548.569C327.131,548.245 327.173,547.905 327.173,547.549ZM321.432,547.644C321.432,547.11 321.527,546.649 321.718,546.261C321.909,545.874 322.173,545.553 322.51,545.298C322.847,545.044 323.234,544.853 323.673,544.726C324.112,544.599 324.579,544.535 325.075,544.535C325.316,544.535 325.548,544.542 325.771,544.554C325.993,544.567 326.276,544.586 326.62,544.612C326.912,544.637 327.173,544.656 327.402,544.669C327.631,544.682 327.815,544.688 327.955,544.688C328.667,544.688 329.182,544.656 329.5,544.593C329.487,544.656 329.477,544.723 329.471,544.793C329.465,544.863 329.461,544.93 329.461,544.993C329.461,545.057 329.465,545.123 329.471,545.193C329.477,545.263 329.487,545.33 329.5,545.394C329.131,545.368 328.772,545.34 328.422,545.308C328.072,545.276 327.726,545.254 327.383,545.241L327.344,545.279C327.739,545.495 328.056,545.829 328.298,546.28C328.54,546.732 328.66,547.199 328.66,547.682C328.66,548.636 328.339,549.383 327.697,549.923C327.055,550.464 326.194,550.734 325.113,550.734C324.935,550.734 324.76,550.728 324.588,550.715C324.417,550.702 324.242,550.696 324.064,550.696C323.835,550.696 323.622,550.778 323.425,550.944C323.228,551.109 323.129,551.319 323.129,551.573C323.129,551.904 323.209,552.145 323.368,552.298C323.527,552.45 323.822,552.533 324.255,552.546C324.611,552.558 324.96,552.568 325.304,552.574C325.647,552.581 325.997,552.59 326.353,552.603C326.938,552.616 327.437,552.686 327.85,552.813C328.263,552.94 328.6,553.112 328.861,553.328C329.121,553.544 329.312,553.792 329.433,554.072C329.554,554.351 329.614,554.656 329.614,554.987C329.614,555.432 329.528,555.883 329.357,556.341C329.185,556.799 328.918,557.212 328.556,557.581C328.193,557.95 327.726,558.255 327.154,558.496C326.582,558.738 325.895,558.859 325.094,558.859C323.861,558.859 322.888,558.614 322.176,558.124C321.464,557.635 321.108,556.964 321.108,556.112C321.108,555.782 321.168,555.477 321.289,555.197C321.41,554.917 321.566,554.669 321.756,554.453C321.947,554.237 322.163,554.065 322.405,553.938C322.646,553.811 322.894,553.716 323.149,553.652L323.149,553.614C322.754,553.499 322.456,553.309 322.252,553.042C322.049,552.775 321.947,552.457 321.947,552.088C321.947,551.872 321.988,551.675 322.071,551.497C322.154,551.319 322.258,551.16 322.386,551.02C322.513,550.88 322.659,550.766 322.824,550.677C322.99,550.588 323.149,550.53 323.301,550.505L323.301,550.467C322.716,550.213 322.258,549.853 321.928,549.389C321.597,548.925 321.432,548.343 321.432,547.644Z" style="fill:rgb(67,67,67);fill-rule:nonzero;stroke:black;stroke-width:0.24px;"/>
        </g>
        <g transform="matrix(0.371796,0,0,0.371796,52.1599,-17.0595)">
            <rect x="212.052" y="352.7" width="5" height="172.015" style="fill:rgb(67,67,67);"/>
        </g>
        <g transform="matrix(0.371796,0,0,0.371796,52.1599,-113.954)">
            <path d="M382.972,613.104C380.27,580.715 364.802,557.03 344.233,542.905C315.21,522.975 275.981,522.107 247.702,542.722C228.92,556.415 214.902,579.598 212.061,613.101C211.944,614.475 212.966,615.686 214.34,615.803C215.715,615.92 216.926,614.898 217.043,613.523C218.605,595.105 223.678,579.951 231.137,567.94C236.533,559.251 243.179,552.207 250.648,546.762C277.235,527.381 314.116,528.289 341.402,547.027C360.872,560.397 375.432,582.861 377.989,613.52C378.104,614.895 379.313,615.918 380.688,615.803C382.063,615.689 383.087,614.479 382.972,613.104Z" style="fill:rgb(67,67,67);"/>
        </g>
        <g transform="matrix(0.37165,-0.0104203,-0.0104203,-0.37165,56.7796,313.061)">
            <path d="M380.482,348.85C380.482,348.85 375.482,348.899 375.486,349.056L380.482,527.25L385.48,527.11L380.482,348.85Z" style="fill:rgb(67,67,67);"/>
        </g>
        <g transform="matrix(0.371796,0,0,0.371796,52.1599,-6.70685)">
            <rect x="239.49" y="352.7" width="2" height="144.17" style="fill:rgb(67,67,67);"/>
        </g>
        <g transform="matrix(0.371796,0,0,0.371796,52.1599,-6.99016)">
            <rect x="353.161" y="353.081" width="2" height="144.17" style="fill:rgb(0,68,68);"/>
        </g>
        <g transform="matrix(0.371796,0,0,0.371796,52.1599,-17.0591)">
            <path d="M379.237,437.707L215.795,437.707C215.244,437.707 214.795,438.155 214.795,438.707C214.795,439.259 215.244,439.707 215.795,439.707L379.237,439.707C379.789,439.707 380.237,439.259 380.237,438.707C380.237,438.155 379.789,437.707 379.237,437.707Z" style="fill:rgb(67,67,67);"/>
        </g>
        <g transform="matrix(1,0,0,1,2.09111,-236.272)">
            <path d="M259.541,333.28C258.785,333.268 258.151,333.406 257.638,333.697C257.126,333.988 255.886,335.059 253.918,336.911L254.795,337.548C255.954,336.242 256.866,335.62 257.533,335.683C258.2,335.745 258.597,336.679 258.725,338.487L252.09,347.44L250.003,347.407L246.158,350.249L246.406,350.642C248.014,350.369 249.395,350.287 250.548,350.397C248.811,352.967 247.547,354.761 246.756,355.782C245.966,356.801 244.939,357.885 243.679,359.034L243.749,359.581L251.098,359.678L253.695,357.011L247.759,356.879C248.904,356.429 250.739,354.302 253.262,350.498L260.357,350.454L261.736,349.58C261.881,350.089 262.023,350.575 262.16,351.04C263.337,355.019 264.213,357.432 264.788,358.279C265.431,359.224 266.188,359.846 267.06,360.146L269.66,357.83C267.875,356.697 266.145,352.586 264.472,345.494C262.799,338.402 261.751,334.593 261.331,334.067C260.911,333.542 260.314,333.278 259.541,333.28ZM261.255,347.742L254.795,347.62L259.541,340.74L261.255,347.742Z" style="fill:rgb(67,67,67);fill-rule:nonzero;"/>
        </g>
        <g transform="matrix(1,0,0,1,2.09111,-224.345)">
            <path d="M290.382,340.675C289.792,340.899 289.24,341.149 288.727,341.422C288.214,341.696 287.763,341.989 287.376,342.301C286.988,342.612 286.674,342.945 286.435,343.295C286.194,343.646 286.051,344.014 286.003,344.4C285.951,344.834 286,345.242 286.15,345.622C286.301,346.004 286.54,346.335 286.867,346.619C287.193,346.902 287.609,347.128 288.112,347.297C288.616,347.466 289.195,347.556 289.848,347.566C290.737,347.58 291.601,347.453 292.44,347.184C293.279,346.916 294.09,346.582 294.872,346.183C294.413,345.781 293.977,345.356 293.564,344.906C293.151,344.456 292.758,343.997 292.387,343.528C292.015,343.059 291.665,342.582 291.334,342.098C291.004,341.613 290.687,341.139 290.382,340.675ZM293.03,338.941C293.643,338.732 294.216,338.516 294.75,338.291C295.285,338.066 295.758,337.821 296.168,337.559C296.578,337.295 296.909,337.002 297.163,336.68C297.417,336.357 297.567,336 297.616,335.605C297.663,335.22 297.635,334.875 297.53,334.571C297.426,334.267 297.267,334.007 297.05,333.79C296.834,333.573 296.573,333.406 296.265,333.289C295.958,333.17 295.619,333.108 295.247,333.103C294.831,333.096 294.439,333.166 294.071,333.314C293.703,333.461 293.378,333.656 293.095,333.897C292.812,334.138 292.579,334.408 292.396,334.707C292.213,335.006 292.103,335.305 292.067,335.602C292.008,336.084 292.064,336.617 292.236,337.2C292.407,337.783 292.672,338.363 293.03,338.941ZM302.709,340.181C302.504,340.75 302.276,341.258 302.024,341.705C301.772,342.153 301.485,342.573 301.16,342.967C300.835,343.36 300.468,343.743 300.055,344.115C299.644,344.487 299.181,344.879 298.669,345.289C299.459,345.93 300.218,346.44 300.944,346.817C301.671,347.196 302.361,347.39 303.014,347.4C303.858,347.413 304.593,347.306 305.219,347.079C305.844,346.851 306.373,346.439 306.808,345.841L307.428,346.021C307.218,346.541 306.922,346.999 306.542,347.396C306.161,347.792 305.711,348.126 305.193,348.395C304.676,348.665 304.098,348.866 303.462,348.996C302.825,349.127 302.148,349.187 301.426,349.176C300.503,349.161 299.578,348.959 298.65,348.569C297.721,348.18 296.828,347.665 295.971,347.023C294.793,347.617 293.531,348.094 292.184,348.455C290.837,348.816 289.41,348.986 287.901,348.962C286.843,348.945 285.952,348.846 285.23,348.665C284.508,348.485 283.929,348.237 283.493,347.925C283.057,347.612 282.755,347.241 282.588,346.811C282.421,346.381 282.368,345.909 282.431,345.394C282.52,344.662 282.794,344.016 283.251,343.456C283.708,342.895 284.283,342.395 284.974,341.955C285.665,341.515 286.436,341.126 287.29,340.789C288.143,340.452 289.015,340.141 289.907,339.858C289.521,339.143 289.225,338.485 289.022,337.886C288.819,337.287 288.742,336.782 288.792,336.372C288.857,335.842 289.041,335.329 289.343,334.834C289.646,334.339 290.066,333.903 290.603,333.525C291.139,333.146 291.788,332.847 292.548,332.625C293.308,332.403 294.172,332.3 295.141,332.315C295.861,332.327 296.53,332.412 297.148,332.571C297.765,332.73 298.294,332.955 298.732,333.249C299.17,333.542 299.501,333.897 299.727,334.316C299.952,334.734 300.033,335.205 299.969,335.727C299.906,336.25 299.675,336.705 299.278,337.094C298.881,337.483 298.382,337.829 297.781,338.134C297.18,338.439 296.507,338.714 295.761,338.959C295.014,339.205 294.26,339.447 293.498,339.685C293.986,340.49 294.597,341.292 295.328,342.089C296.06,342.886 296.859,343.669 297.723,344.44C298.947,343.557 299.885,342.738 300.535,341.983C301.185,341.228 301.636,340.567 301.885,339.999L302.709,340.181Z" style="fill:rgb(67,67,67);fill-rule:nonzero;"/>
        </g>
        <g transform="matrix(1,0,0,1,2.09111,-238.05)">
            <path d="M321.523,335.517C322.04,336.058 322.22,337.126 322.065,338.721C320.325,351.249 319.565,358.002 319.786,358.979C320.006,359.957 320.905,360.752 322.48,361.365L327.519,358.734L327.295,358.184C325.737,358.859 324.918,358.535 324.836,357.209C324.755,355.884 325.152,352.348 326.026,346.603L339.32,346.499L339.838,343.921L328.524,344.036L326.17,345.428L327.01,337.097C327.137,335.263 326.718,334.079 325.754,333.546L321.523,335.517ZM339.255,335.798C339.772,336.339 339.952,337.407 339.796,339.002C338.97,344.948 338.365,349.594 337.981,352.938C337.556,356.639 337.401,358.747 337.517,359.26C337.738,360.238 338.636,361.033 340.212,361.646L345.25,359.015L345.026,358.465C343.468,359.14 342.649,358.816 342.567,357.49C342.486,356.165 343.211,349.461 344.742,337.378C344.868,335.544 344.449,334.36 343.485,333.827L339.255,335.798Z" style="fill:rgb(67,67,67);fill-rule:nonzero;"/>
        </g>
    </g>
</svg>
